<svg xmlns="http://www.w3.org/2000/svg" version="1.1" xmlns:xlink="http://www.w3.org/1999/xlink" width="200" height="200"><svg xmlns="http://www.w3.org/2000/svg" version="1.1" xmlns:xlink="http://www.w3.org/1999/xlink" viewBox="0 0 200 200"><rect width="200" height="200" fill="url('#gradient')"></rect><defs><linearGradient id="SvgjsLinearGradient1001" gradientTransform="rotate(154 0.5 0.5)"><stop offset="0%" stop-color="#ceaa96"></stop><stop offset="100%" stop-color="#8fa983"></stop></linearGradient></defs><g><g fill="#cbd2e1" transform="matrix(3.5718596903782087,0,0,3.5718596903782087,9.740550679107429,125.38243692283324)" stroke="#c8512e" stroke-width="0.7"><path d="M12.24-14.22L12.24-11.57L7.97-11.57L7.97 0L4.54 0L4.54-11.57L0.35-11.57L0.35-14.22L12.24-14.22ZM25.45-7.47L25.45-6.82Q25.45-4.74 24.68-3.13Q23.91-1.53 22.49-0.67Q21.06 0.20 19.25 0.20Q17.43 0.20 16.03-0.64Q14.62-1.47 13.83-3.03Q13.05-4.58 13.01-6.59L13.01-6.59L13.01-7.39Q13.01-9.48 13.77-11.08Q14.54-12.68 15.97-13.54Q17.40-14.41 19.23-14.41L19.23-14.41Q21.04-14.41 22.45-13.55Q23.87-12.70 24.65-11.11Q25.44-9.52 25.45-7.47L25.45-7.47ZM21.96-6.76L21.96-7.41Q21.96-9.53 21.25-10.63Q20.55-11.73 19.23-11.73L19.23-11.73Q16.65-11.73 16.50-7.86L16.50-7.86L16.49-6.82Q16.49-4.73 17.19-3.60Q17.88-2.48 19.25-2.48L19.25-2.48Q20.55-2.48 21.25-3.58Q21.95-4.69 21.96-6.76L21.96-6.76ZM37.55-14.22L37.55-11.57L33.28-11.57L33.28 0L29.85 0L29.85-11.57L25.66-11.57L25.66-14.22L37.55-14.22ZM44.61-4.82L42.42-4.82L42.42 0L38.99 0L38.99-14.22L44.67-14.22Q46.30-14.22 47.55-13.62Q48.81-13.02 49.50-11.91Q50.19-10.80 50.19-9.39L50.19-9.39Q50.19-7.31 48.70-6.07Q47.21-4.82 44.61-4.82L44.61-4.82ZM42.42-11.57L42.42-7.47L44.67-7.47Q45.66-7.47 46.19-7.97Q46.71-8.47 46.71-9.38L46.71-9.38Q46.71-10.37 46.17-10.97Q45.63-11.56 44.71-11.57L44.71-11.57L42.42-11.57Z"></path></g></g></svg><style>@media (prefers-color-scheme: light) { :root { filter: contrast(1) brightness(1); } }
@media (prefers-color-scheme: dark) { :root { filter: none; } }
</style></svg>